<svg version="1.1" xmlns="http://www.w3.org/2000/svg" xmlns:xlink="http://www.w3.org/1999/xlink" width="50.58511" height="51.99832" viewBox="0,0,50.58511,51.99832"><g transform="translate(-249.80762,-171.50168)"><g fill="#ffffff" stroke="#000000" stroke-miterlimit="10"><path d="M266.30385,190.44285c-0.03343,0.27409 -0.08256,0.54236 -0.14935,0.80349c-0.48128,1.88178 -0.40166,4.65733 -2.19779,5.39669c-1.80563,0.74327 -3.67379,-1.35743 -5.40064,-2.26885c-2.20276,-1.16261 -8.41208,-4.94079 -7.69045,-8.10797c0.4476,-1.9645 3.01394,-2.67832 4.43857,-4.10311c1.99314,-1.99335 3.72367,-4.46488 5.72765,-6.37131c1.28797,-1.22527 2.43543,-3.45373 4.20466,-3.28058c1.76434,0.17267 2.63196,2.4686 3.46855,4.03155c1.0126,1.89177 0.81619,4.95841 0.71916,7.70525c8.32144,1.00202 15.8076,3.24532 22.47701,8.80473c2.88823,2.28878 6.28224,5.54105 7.49152,9.22279c0.57198,1.74145 -0.15121,6.03802 -0.71289,7.58698c-2.55304,7.04061 -9.77102,11.34562 -16.94605,12.6052c-0.24383,0.0428 -5.78405,0.03228 -6.06712,0.03228c-3.04323,0 -6.78613,0.44287 -9.7794,-0.04011c-1.63901,-0.26447 -3.22733,-0.98988 -4.88727,-0.95989c0,0 -2.5,0 -2.5,-2.5c0,-2.5 2.5,-2.5 2.5,-2.5c1.95725,0.02523 3.85058,0.70676 5.7794,1.04011c1.82432,0.31529 3.70258,-0.04011 5.55394,-0.04011c2.65215,0 5.97947,0.49787 8.59955,0.03228c5.45821,-0.96993 11.05328,-4.08041 13.05395,-9.3948c0.0003,-0.00079 0.86188,-3.80444 0.62044,-4.41302c-1.07749,-2.7159 -3.61781,-5.08699 -5.84182,-6.77721c-5.82934,-4.85646 -12.31841,-6.8037 -19.55795,-7.69844c-0.28157,0.56535 -0.8322,1.09873 -1.89742,1.23189c-0.38551,0.04819 -0.71859,0.02898 -1.00624,-0.03785z" stroke-width="2"/><path d="M269.88774,212.02978c0.60463,-1.20926 1.81389,-0.60463 1.81389,-0.60463l-0.2441,0.03753c1.2068,0 2.4136,0.0034 3.62038,0.01013c0.45323,-0.11651 2.44606,-0.60632 2.7396,-0.79059c0.68093,-0.42746 0.41048,-1.24454 0.39997,-1.83339c-0.03448,-1.93091 0.32104,-3.21898 -1.99318,-3.72489c-1.32254,-0.28912 -4.2666,0.73889 -5.31343,-0.3201c-0.63765,-0.64505 -0.44128,-1.76038 -0.61618,-2.65038c-0.27309,-1.3896 -0.56319,-2.79712 -0.54684,-4.2132c0.01467,-1.27042 -0.44411,-2.86849 0.43396,-3.78674c0.76987,-0.8051 2.22426,-0.14353 3.33811,-0.15792c1.79048,-0.02314 3.57963,0.10799 5.36944,0.16223c0,0 1.35137,0.04095 1.31042,1.39232c-0.04095,1.35137 -1.39232,1.31042 -1.39232,1.31042c-0.02896,-0.00088 -5.4364,-0.16458 -5.44152,-0.16538c-0.48149,-0.07469 -1.0361,-0.92085 -1.35375,-0.55138c-0.36471,0.42421 0.33278,1.07101 0.43396,1.62122c0.24802,1.34869 0.56965,2.70815 0.53476,4.07901c-0.00839,0.32941 -0.39369,0.65572 -0.25565,0.95493c0.08923,0.19341 0.32427,-0.31805 0.53493,-0.34955c0.59428,-0.08887 1.20179,-0.00502 1.80265,0c1.76987,0.01479 2.1156,-0.16432 3.78659,0.93004c0.65429,0.42851 1.33941,0.90718 1.7306,1.58444c0.33792,0.58502 0.27967,1.32528 0.33882,1.99828c0.17324,1.97124 0.34333,4.40283 -1.40007,5.82177c-0.7841,0.63818 -3.02637,1.10712 -4.11048,1.37259c-1.31691,0.00621 -2.63384,0.01013 -3.95076,0.01013l-0.96516,-0.323c0,0 -1.20926,-0.60463 -0.60463,-1.81389z" stroke-width="1"/></g></g></svg>