<svg version="1.1" xmlns="http://www.w3.org/2000/svg" xmlns:xlink="http://www.w3.org/1999/xlink" width="50.47719" height="52.17424" viewBox="0,0,50.47719,52.17424"><g transform="translate(-250.06665,-171.51121)"><g fill="#ffffff" stroke="#000000" stroke-miterlimit="10"><path d="M284.1056,190.44284c-0.28765,0.06683 -0.62073,0.08604 -1.00624,0.03785c-1.06522,-0.13316 -1.61585,-0.66654 -1.89742,-1.23189c-7.23954,0.89474 -13.72861,2.84198 -19.55795,7.69844c-2.22401,1.69022 -4.76433,4.06131 -5.84182,6.77721c-0.24144,0.60858 0.62014,4.41223 0.62044,4.41302c2.00067,5.31439 7.59574,8.42487 13.05395,9.3948c2.62008,0.46559 5.9474,-0.03228 8.59955,-0.03228c1.85136,0 3.72962,0.3554 5.55394,0.04011c1.92882,-0.33335 3.82215,-1.01488 5.7794,-1.04011c0,0 2.5,0 2.5,2.5c0,2.5 -2.5,2.5 -2.5,2.5c-1.65994,-0.02999 -3.24826,0.69542 -4.88727,0.95989c-2.99327,0.48298 -6.73617,0.04011 -9.7794,0.04011c-0.28307,0 -5.82329,0.01052 -6.06712,-0.03228c-7.17503,-1.25958 -14.39301,-5.56459 -16.94605,-12.6052c-0.56168,-1.54896 -1.28487,-5.84553 -0.71289,-7.58698c1.20928,-3.68174 4.60329,-6.93401 7.49152,-9.22279c6.66941,-5.55941 14.15557,-7.80271 22.47701,-8.80473c-0.09703,-2.74684 -0.29344,-5.81348 0.71916,-7.70525c0.83659,-1.56295 1.70421,-3.85888 3.46855,-4.03155c1.76923,-0.17315 2.91669,2.05531 4.20466,3.28058c2.00398,1.90643 3.73451,4.37796 5.72765,6.37131c1.42463,1.42479 3.99097,2.13861 4.43857,4.10311c0.72163,3.16718 -5.48769,6.94536 -7.69045,8.10797c-1.72685,0.91142 -3.59501,3.01212 -5.40064,2.26885c-1.79613,-0.73936 -1.71651,-3.51491 -2.19779,-5.39669c-0.06679,-0.26113 -0.11592,-0.5294 -0.14935,-0.80349z" stroke-width="2"/><path d="M269.88774,212.02978c0.60463,-1.20926 1.81389,-0.60463 1.81389,-0.60463l-0.2441,0.03753c1.2068,0 2.4136,0.0034 3.62038,0.01013c0.45323,-0.11651 2.44606,-0.60632 2.7396,-0.79059c0.68093,-0.42746 0.41048,-1.24454 0.39997,-1.83339c-0.03448,-1.93091 0.32104,-3.21898 -1.99318,-3.72489c-1.32254,-0.28912 -4.2666,0.73889 -5.31343,-0.3201c-0.63765,-0.64505 -0.44128,-1.76038 -0.61618,-2.65038c-0.27309,-1.3896 -0.56319,-2.79712 -0.54684,-4.2132c0.01467,-1.27042 -0.44411,-2.86849 0.43396,-3.78674c0.76987,-0.8051 2.22426,-0.14353 3.33811,-0.15792c1.79048,-0.02314 3.57963,0.10799 5.36944,0.16223c0,0 1.35137,0.04095 1.31042,1.39232c-0.04095,1.35137 -1.39232,1.31042 -1.39232,1.31042c-0.02896,-0.00088 -5.4364,-0.16458 -5.44152,-0.16538c-0.48149,-0.07469 -1.0361,-0.92085 -1.35375,-0.55138c-0.36471,0.42421 0.33278,1.07101 0.43396,1.62122c0.24802,1.34869 0.56965,2.70815 0.53476,4.07901c-0.00839,0.32941 -0.39369,0.65572 -0.25565,0.95493c0.08923,0.19341 0.32427,-0.31805 0.53493,-0.34955c0.59428,-0.08887 1.20179,-0.00502 1.80265,0c1.76987,0.01479 2.1156,-0.16432 3.78659,0.93004c0.65429,0.42851 1.33941,0.90718 1.7306,1.58444c0.33792,0.58502 0.27967,1.32528 0.33882,1.99828c0.17324,1.97124 0.34333,4.40283 -1.40007,5.82177c-0.7841,0.63818 -3.02637,1.10712 -4.11048,1.37259c-1.31691,0.00621 -2.63384,0.01013 -3.95076,0.01013l-0.96516,-0.323c0,0 -1.20926,-0.60463 -0.60463,-1.81389z" stroke-width="1"/></g></g></svg>